<svg xmlns="http://www.w3.org/2000/svg" version="1.1" xmlns:xlink="http://www.w3.org/1999/xlink" xmlns:svgjs="http://svgjs.dev/svgjs" width="128" height="128" viewBox="0 0 128 128"><g transform="matrix(0.8046875,0,0,0.8046875,12.333870967741937,12.333870967741937)"><svg viewBox="0 0 155 155" data-background-color="#ffffff" preserveAspectRatio="xMidYMid meet" height="128" width="128" xmlns="http://www.w3.org/2000/svg" xmlns:xlink="http://www.w3.org/1999/xlink"><g id="tight-bounds" transform="matrix(1,0,0,1,0.25,0.25)"><svg viewBox="0 0 154.5 154.5" height="154.5" width="154.5"><g><svg></svg></g><g><svg viewBox="0 0 154.5 154.5" height="154.5" width="154.5"><mask id="f2126190-53b8-4520-a5a9-5be858910098"><rect width="250" height="250" fill="white"></rect><g transform="matrix(1,0,0,1,43.66062466734903,43.83165)"><svg viewBox="0 0 67.17875066530193 66.8367" height="66.8367" width="67.17875066530193"><g><svg viewBox="0 0 67.17875066530193 66.8367" height="66.8367" width="67.17875066530193"><g><svg viewBox="0 0 67.17875066530193 66.8367" height="66.8367" width="67.17875066530193"><g id="SvgjsG1068"><svg viewBox="0 0 67.17875066530193 66.8367" height="66.8367" width="67.17875066530193" id="SvgjsSvg1067"><g><svg viewBox="0 0 67.17875066530193 66.8367" height="66.8367" width="67.17875066530193"><g transform="matrix(1,0,0,1,0,0)"><svg width="67.17875066530193" viewBox="-3.1 -42.65 50.1 49.85" height="66.8367" data-palette-color="#001f3f"><path d="M33.2-22.25L33.2-22.25Q34.35-22.25 34.35-20.8L34.35-20.8Q34.35-19.25 33.1-17.9L33.1-17.9Q30.9-15.45 29.05-11.75L29.05-11.75Q26.25-6.15 26.25-1.65L26.25-1.65Q26.25 0.1 26.88 0.9 27.5 1.7 28.3 1.7L28.3 1.7Q30.7 1.7 33.9-2.2L33.9-2.2Q36.75-5.85 38.25-9.3L38.25-9.3Q38.65-10.1 39.05-10 39.45-9.9 39.1-9.1L39.1-9.1Q37.05-4.55 34.45-1.1L34.45-1.1Q33.1 0.75 31.1 1.98 29.1 3.2 27.13 3.2 25.15 3.2 24.15 1.63 23.15 0.05 23.15-2.1 23.15-4.25 23.68-6.35 24.2-8.45 25.05-9.6L25.05-9.6Q20-3.55 14.3 0.1L14.3 0.1Q11.3 1.95 7.65 2.3L7.65 2.3Q7.3 2.35 6.48 2.35 5.65 2.35 4.5 1.75L4.5 1.75Q0.9 0.25 0.9-5.58 0.9-11.4 4.7-18.2L4.7-18.2Q6.7-21.8 9.1-24.55L9.1-24.55Q5.75-26.15 4.1-28L4.1-28Q2.9-29.35 2.9-31.25 2.9-33.15 3.65-33.65L3.65-33.65Q4.15-34.3 4.55-33.9L4.55-33.9Q4.85-33.45 4.58-32.8 4.3-32.15 4.3-31.55L4.3-31.55Q4.3-30.2 5.75-28.55 7.2-26.9 10-25.6L10-25.6Q21.75-38.65 34.4-38.65L34.4-38.65Q38.35-38.65 40.68-36.88 43-35.1 43-32.3L43-32.3Q43-29.25 39.6-26.4L39.6-26.4Q37.9-24.9 34.75-23.8L34.75-23.8Q29.95-22.1 23.33-22.1 16.7-22.1 12.35-23.5L12.35-23.5Q7.3-16.35 5.4-11.63 3.5-6.9 3.5-4.3L3.5-4.3Q3.5-3.75 3.55-3.3L3.55-3.3Q4.15 0.85 7.75 0.85L7.75 0.85Q11.8 0.85 17.15-3.55L17.15-3.55Q20.95-6.75 24.6-11.15 28.25-15.55 30.03-18.9 31.8-22.25 33.2-22.25ZM40.95-32.9L40.95-32.9Q40.95-35.05 39.18-36.2 37.4-37.35 34.3-37.35 31.2-37.35 28.13-36.35 25.05-35.35 22.38-33.4 19.7-31.45 17.63-29.4 15.55-27.35 13.15-24.5L13.15-24.5Q16.9-23.3 22.35-23.3L22.35-23.3Q32.6-23.3 37.3-26.6L37.3-26.6Q40.95-29.15 40.95-32.9Z" opacity="1" transform="matrix(1,0,0,1,0,0)" fill="black" class="wordmark-text-0" id="SvgjsPath1066" stroke-width="7" stroke="black" stroke-linejoin="round"></path></svg></g></svg></g></svg></g></svg></g></svg></g></svg></g></mask><g transform="matrix(1,0,0,1,43.66062466734903,43.83165)"><svg viewBox="0 0 67.17875066530193 66.8367" height="66.8367" width="67.17875066530193"><g><svg viewBox="0 0 67.17875066530193 66.8367" height="66.8367" width="67.17875066530193"><g><svg viewBox="0 0 67.17875066530193 66.8367" height="66.8367" width="67.17875066530193"><g id="textblocktransform"><svg viewBox="0 0 67.17875066530193 66.8367" height="66.8367" width="67.17875066530193" id="textblock"><g><svg viewBox="0 0 67.17875066530193 66.8367" height="66.8367" width="67.17875066530193"><g transform="matrix(1,0,0,1,0,0)"><svg width="67.17875066530193" viewBox="-3.1 -42.65 50.1 49.85" height="66.8367" data-palette-color="#001f3f"><path d="M33.2-22.25L33.2-22.25Q34.35-22.25 34.35-20.8L34.35-20.8Q34.35-19.25 33.1-17.9L33.1-17.9Q30.9-15.45 29.05-11.75L29.05-11.75Q26.25-6.15 26.25-1.65L26.25-1.65Q26.25 0.1 26.88 0.9 27.5 1.7 28.3 1.7L28.3 1.7Q30.7 1.7 33.9-2.2L33.9-2.2Q36.75-5.85 38.25-9.3L38.25-9.3Q38.65-10.1 39.05-10 39.45-9.9 39.1-9.1L39.1-9.1Q37.05-4.55 34.45-1.1L34.45-1.1Q33.1 0.75 31.1 1.98 29.1 3.2 27.13 3.2 25.15 3.2 24.15 1.63 23.15 0.05 23.15-2.1 23.15-4.25 23.68-6.35 24.2-8.45 25.05-9.6L25.05-9.6Q20-3.55 14.3 0.1L14.3 0.1Q11.3 1.95 7.65 2.3L7.65 2.3Q7.3 2.35 6.48 2.35 5.65 2.35 4.5 1.75L4.5 1.75Q0.9 0.25 0.9-5.58 0.9-11.4 4.7-18.2L4.7-18.2Q6.7-21.8 9.1-24.55L9.1-24.55Q5.75-26.15 4.1-28L4.1-28Q2.9-29.35 2.9-31.25 2.9-33.15 3.65-33.65L3.65-33.65Q4.15-34.3 4.55-33.9L4.55-33.9Q4.85-33.45 4.58-32.8 4.3-32.15 4.3-31.55L4.3-31.55Q4.3-30.2 5.75-28.55 7.2-26.9 10-25.6L10-25.6Q21.75-38.65 34.4-38.65L34.4-38.65Q38.35-38.65 40.68-36.88 43-35.1 43-32.3L43-32.3Q43-29.25 39.6-26.4L39.6-26.4Q37.9-24.9 34.75-23.8L34.75-23.8Q29.95-22.1 23.33-22.1 16.7-22.1 12.35-23.5L12.35-23.5Q7.3-16.35 5.4-11.63 3.5-6.9 3.5-4.3L3.5-4.3Q3.5-3.75 3.55-3.3L3.55-3.3Q4.15 0.85 7.75 0.85L7.75 0.85Q11.8 0.85 17.15-3.55L17.15-3.55Q20.95-6.75 24.6-11.15 28.25-15.55 30.03-18.9 31.8-22.25 33.2-22.25ZM40.95-32.9L40.95-32.9Q40.95-35.05 39.18-36.2 37.4-37.35 34.3-37.35 31.2-37.35 28.13-36.35 25.05-35.35 22.38-33.4 19.7-31.45 17.63-29.4 15.55-27.35 13.15-24.5L13.15-24.5Q16.9-23.3 22.35-23.3L22.35-23.3Q32.6-23.3 37.3-26.6L37.3-26.6Q40.95-29.15 40.95-32.9Z" opacity="1" transform="matrix(1,0,0,1,0,0)" fill="#001f3f" class="wordmark-text-0" data-fill-palette-color="primary" id="text-0"></path></svg></g></svg></g></svg></g></svg></g></svg></g></svg></g><g mask="url(#f2126190-53b8-4520-a5a9-5be858910098)"><g transform="matrix(2.0176227773073667, 0, 0, 2.0176227773073667, 1.0000000000000142, 5.327800857324306)"><svg xmlns="http://www.w3.org/2000/svg" xmlns:xlink="http://www.w3.org/1999/xlink" version="1.1" x="0" y="0" viewBox="12.208000000000016 14.352999999999994 75.58399999999999 71.294" enable-background="new 0 0 100 100" xml:space="preserve" height="71.294" width="75.58399999999999" class="icon-none" data-fill-palette-color="accent" id="none"></svg></g></g></svg></g><defs></defs><mask id="cb02697f-0475-4cf1-823c-4bc7b9f50c79"><g id="SvgjsG1078"><svg viewBox="0 0 154.5 154.5" height="154.5" width="154.5"><g><svg></svg></g><g><svg viewBox="0 0 154.5 154.5" height="154.5" width="154.5"><mask id="SvgjsMask1077"><g transform="matrix(1,0,0,1,43.66062466734903,43.83165)"><svg viewBox="0 0 67.17875066530193 66.8367" height="66.8367" width="67.17875066530193"><g><svg viewBox="0 0 67.17875066530193 66.8367" height="66.8367" width="67.17875066530193"><g><svg viewBox="0 0 67.17875066530193 66.8367" height="66.8367" width="67.17875066530193"><g id="SvgjsG1076"><svg viewBox="0 0 67.17875066530193 66.8367" height="66.8367" width="67.17875066530193" id="SvgjsSvg1075"><g><svg viewBox="0 0 67.17875066530193 66.8367" height="66.8367" width="67.17875066530193"><g transform="matrix(1,0,0,1,0,0)"><svg width="67.17875066530193" viewBox="-3.1 -42.65 50.1 49.85" height="66.8367" data-palette-color="#001f3f"></svg></g></svg></g></svg></g></svg></g></svg></g></svg></g></mask><g transform="matrix(1,0,0,1,43.66062466734903,43.83165)"><svg viewBox="0 0 67.17875066530193 66.8367" height="66.8367" width="67.17875066530193"><g><svg viewBox="0 0 67.17875066530193 66.8367" height="66.8367" width="67.17875066530193"><g><svg viewBox="0 0 67.17875066530193 66.8367" height="66.8367" width="67.17875066530193"><g id="SvgjsG1073"><svg viewBox="0 0 67.17875066530193 66.8367" height="66.8367" width="67.17875066530193" id="SvgjsSvg1072"><g><svg viewBox="0 0 67.17875066530193 66.8367" height="66.8367" width="67.17875066530193"><g transform="matrix(1,0,0,1,0,0)"><svg width="67.17875066530193" viewBox="-3.1 -42.65 50.1 49.85" height="66.8367" data-palette-color="#001f3f"></svg></g></svg></g></svg></g></svg></g></svg></g></svg></g><g mask="url(#f2126190-53b8-4520-a5a9-5be858910098)"><g transform="matrix(2.0176227773073667, 0, 0, 2.0176227773073667, 1.0000000000000142, 5.327800857324306)"><svg xmlns="http://www.w3.org/2000/svg" xmlns:xlink="http://www.w3.org/1999/xlink" version="1.1" x="0" y="0" viewBox="12.208000000000016 14.352999999999994 75.58399999999999 71.294" enable-background="new 0 0 100 100" xml:space="preserve" height="71.294" width="75.58399999999999" class="icon-none" data-fill-palette-color="accent" id="SvgjsSvg1070"><path fill="white" d="M81.653 48.936c-3.044 0-5.571 2.229-6.051 5.139h-2.02c-0.909 0-1.762-0.401-2.341-1.103l-3.271-3.959c-1.028-1.243-2.543-1.957-4.156-1.957h-2.987v-7.824c0-2.716-2.21-4.926-4.926-4.926h-4.839v-1.142c0-0.582 0.227-1.131 0.638-1.544l3.773-3.786c0.407-0.408 0.972-0.643 1.549-0.643h5.644c0.48 2.91 3.006 5.139 6.051 5.139 3.385 0 6.139-2.754 6.139-6.139 0-3.386-2.754-6.14-6.139-6.14-3.044 0-5.571 2.229-6.051 5.14h-5.644c-1.104 0-2.186 0.448-2.965 1.23l-3.774 3.787c-0.787 0.791-1.221 1.841-1.221 2.955v1.142h-4.163v-3.443c0-1.529-0.595-2.968-1.674-4.051l-5.611-5.63c-1.068-1.072-2.55-1.688-4.064-1.688h-9.152c-0.48-2.911-3.006-5.14-6.051-5.14-3.385 0-6.139 2.754-6.139 6.14 0 3.385 2.754 6.139 6.139 6.139 3.044 0 5.571-2.229 6.051-5.139h9.152c0.986 0 1.952 0.4 2.648 1.1l5.611 5.63c0.703 0.705 1.09 1.643 1.09 2.639v3.443h-5.296c-2.716 0-4.925 2.21-4.925 4.926v3.166h-2.955c-1.367 0-2.677 0.507-3.688 1.426l-5.41 4.92c-1.14 1.037-1.794 2.515-1.794 4.056v11.517c-3.072 0.334-5.472 2.942-5.472 6.102 0 3.385 2.754 6.139 6.14 6.139 3.385 0 6.139-2.754 6.139-6.139 0-2.928-2.061-5.379-4.807-5.99V52.799c0-0.979 0.415-1.917 1.14-2.575l5.41-4.921c0.642-0.584 1.474-0.905 2.342-0.905h2.955v13.132c0 2.716 2.209 4.925 4.925 4.925h6.753v11.002c-2.911 0.48-5.14 3.006-5.14 6.05 0 3.386 2.754 6.14 6.14 6.14s6.14-2.754 6.14-6.14c0-3.044-2.229-5.57-5.14-6.05V62.454h9.545c2.704 0 4.902-2.19 4.922-4.889 0.086 0.024 0.17 0.053 0.263 0.053h1.427c0.706 0 1.383 0.301 1.863 0.832l6.198 6.719c-0.958 1.083-1.545 2.502-1.545 4.058 0 3.386 2.754 6.14 6.14 6.14 3.385 0 6.139-2.754 6.139-6.14 0-3.385-2.754-6.139-6.139-6.139-1.107 0-2.144 0.299-3.042 0.814l-6.273-6.801c-0.854-0.942-2.07-1.483-3.341-1.483h-1.427c-0.092 0-0.175 0.029-0.26 0.052v-6.615h2.987c1.015 0 1.968 0.449 2.615 1.231l3.271 3.958c0.96 1.162 2.375 1.829 3.883 1.829h2.02c0.48 2.911 3.006 5.14 6.051 5.14 3.385 0 6.139-2.754 6.139-6.14C87.792 51.689 85.038 48.936 81.653 48.936zM68.717 22.052c2.282 0 4.139 1.857 4.139 4.14s-1.856 4.139-4.139 4.139c-2.252 0-4.083-1.81-4.131-4.052 0.003-0.03 0.018-0.056 0.018-0.087s-0.015-0.057-0.018-0.087C64.634 23.863 66.464 22.052 68.717 22.052zM18.347 24.633c-2.282 0-4.139-1.856-4.139-4.139s1.856-4.14 4.139-4.14 4.14 1.857 4.14 4.14S20.629 24.633 18.347 24.633zM23.639 70.417c0 2.282-1.856 4.139-4.139 4.139s-4.14-1.856-4.14-4.139 1.857-4.14 4.14-4.14S23.639 68.135 23.639 70.417zM49.496 79.506c0 2.282-1.857 4.14-4.14 4.14s-4.14-1.857-4.14-4.14 1.857-4.139 4.14-4.139S49.496 77.224 49.496 79.506zM79.309 69.228c0 2.282-1.856 4.14-4.139 4.14s-4.14-1.857-4.14-4.14c0-1.187 0.51-2.252 1.313-3.007 0.133-0.043 0.26-0.107 0.369-0.208 0.072-0.066 0.116-0.147 0.164-0.227 0.657-0.439 1.445-0.697 2.293-0.697C77.452 65.089 79.309 66.945 79.309 69.228zM58.827 57.529c0 1.612-1.313 2.925-2.926 2.925H37.604c-1.612 0-2.925-1.313-2.925-2.925V39.231c0-1.613 1.313-2.926 2.925-2.926h18.298c1.613 0 2.926 1.313 2.926 2.926V57.529zM81.653 59.214c-2.282 0-4.14-1.857-4.14-4.14s1.857-4.139 4.14-4.139 4.139 1.856 4.139 4.139S83.936 59.214 81.653 59.214z"></path><rect x="38.961" y="40.639" fill="white" width="3" height="3"></rect><rect x="45.215" y="40.639" fill="white" width="3" height="3"></rect><rect x="45.215" y="46.88" fill="white" width="3" height="3"></rect><rect x="51.544" y="46.88" fill="white" width="3" height="3"></rect><rect x="38.961" y="53.047" fill="white" width="3" height="3"></rect><rect x="51.544" y="53.047" fill="white" width="3" height="3"></rect></svg></g></g></svg></g><defs><mask></mask></defs></svg></g></mask><linearGradient x1="0" x2="1" y1="0.548" y2="0.55" id="5fc1cc3b-f4d3-428f-9829-f1614c40b9f4"><stop stop-color="#ff6cab" offset="0"></stop><stop stop-color="#7366ff" offset="1"></stop></linearGradient><rect width="154.5" height="154.5" fill="url(#5fc1cc3b-f4d3-428f-9829-f1614c40b9f4)" mask="url(#cb02697f-0475-4cf1-823c-4bc7b9f50c79)" data-fill-palette-color="accent"></rect></svg><rect width="154.5" height="154.5" fill="none" stroke="none" visibility="hidden"></rect></g></svg></g></svg>